<svg width="225" height="62" viewBox="0 0 225 62" fill="none" xmlns="http://www.w3.org/2000/svg">
<path d="M38.96 15.24V13.54H49.9V15.24H45.49V28H43.63V15.24H38.96ZM54.6283 28.2C53.6749 28.2 52.8416 27.9967 52.1283 27.59C51.4149 27.1767 50.8616 26.5733 50.4683 25.78C50.0749 24.9867 49.8783 24.0167 49.8783 22.87C49.8783 21.79 50.0616 20.8433 50.4283 20.03C50.7949 19.2167 51.3316 18.5867 52.0383 18.14C52.7516 17.6867 53.6149 17.46 54.6283 17.46C55.5816 17.46 56.4083 17.67 57.1083 18.09C57.8149 18.5033 58.3616 19.1133 58.7483 19.92C59.1349 20.7267 59.3283 21.71 59.3283 22.87C59.3283 23.9233 59.1483 24.85 58.7883 25.65C58.4349 26.45 57.9083 27.0767 57.2083 27.53C56.5149 27.9767 55.6549 28.2 54.6283 28.2ZM54.6283 26.74C55.2483 26.74 55.7716 26.5833 56.1983 26.27C56.6249 25.9567 56.9483 25.5067 57.1683 24.92C57.3883 24.3333 57.4983 23.6367 57.4983 22.83C57.4983 22.09 57.4016 21.4267 57.2083 20.84C57.0149 20.2467 56.7049 19.7767 56.2783 19.43C55.8583 19.0833 55.3083 18.91 54.6283 18.91C54.0016 18.91 53.4716 19.0667 53.0383 19.38C52.6049 19.6867 52.2749 20.1333 52.0483 20.72C51.8283 21.3067 51.7183 22.01 51.7183 22.83C51.7183 23.5567 51.8183 24.2167 52.0183 24.81C52.2183 25.4033 52.5316 25.8733 52.9583 26.22C53.3849 26.5667 53.9416 26.74 54.6283 26.74ZM61.7488 31.22V17.66H63.5888L63.6088 19.46C63.7288 19.2467 63.8821 19.0233 64.0688 18.79C64.2621 18.5567 64.4954 18.34 64.7688 18.14C65.0488 17.94 65.3721 17.7767 65.7388 17.65C66.1121 17.5233 66.5354 17.46 67.0088 17.46C67.8354 17.46 68.5621 17.65 69.1888 18.03C69.8221 18.4033 70.3154 18.9767 70.6688 19.75C71.0221 20.5233 71.1988 21.5033 71.1988 22.69C71.1988 23.8767 71.0254 24.88 70.6788 25.7C70.3388 26.5133 69.8454 27.1333 69.1988 27.56C68.5521 27.9867 67.7721 28.2 66.8588 28.2C66.3988 28.2 65.9888 28.1333 65.6288 28C65.2754 27.8733 64.9654 27.7067 64.6988 27.5C64.4388 27.2867 64.2188 27.06 64.0388 26.82C63.8654 26.58 63.7221 26.35 63.6088 26.13V31.22H61.7488ZM66.5088 26.76C67.3621 26.76 68.0588 26.4367 68.5988 25.79C69.1388 25.1367 69.4088 24.1233 69.4088 22.75C69.4088 21.57 69.1621 20.6333 68.6688 19.94C68.1754 19.2467 67.4554 18.9 66.5088 18.9C65.5488 18.9 64.8221 19.2567 64.3288 19.97C63.8354 20.6767 63.5888 21.6033 63.5888 22.75C63.5888 23.49 63.6988 24.1633 63.9188 24.77C64.1388 25.3767 64.4654 25.86 64.8988 26.22C65.3321 26.58 65.8688 26.76 66.5088 26.76ZM80.3059 28V16.49H77.5159V15.28C78.3826 15.28 79.0559 15.2167 79.5359 15.09C80.0159 14.9633 80.3559 14.77 80.5559 14.51C80.7626 14.25 80.8759 13.9267 80.8959 13.54H82.2159V28H80.3059ZM90.8605 13.34C92.4271 13.34 93.6738 13.97 94.6005 15.23C95.5338 16.4833 96.0005 18.34 96.0005 20.8C96.0005 23.2467 95.5371 25.0967 94.6105 26.35C93.6838 27.5967 92.4271 28.22 90.8405 28.22C89.2605 28.22 88.0071 27.6 87.0805 26.36C86.1538 25.1133 85.6905 23.27 85.6905 20.83C85.6905 19.1833 85.9038 17.8033 86.3305 16.69C86.7571 15.5767 87.3571 14.74 88.1305 14.18C88.9038 13.62 89.8138 13.34 90.8605 13.34ZM90.8605 26.62C91.8938 26.62 92.6738 26.1667 93.2005 25.26C93.7338 24.3467 94.0005 22.8633 94.0005 20.81C94.0005 18.7167 93.7305 17.21 93.1905 16.29C92.6571 15.3633 91.8771 14.9 90.8505 14.9C89.8305 14.9 89.0438 15.3667 88.4905 16.3C87.9438 17.2267 87.6705 18.73 87.6705 20.81C87.6705 22.8567 87.9438 24.3367 88.4905 25.25C89.0371 26.1633 89.8271 26.62 90.8605 26.62ZM102.989 13.34C104.556 13.34 105.803 13.97 106.729 15.23C107.663 16.4833 108.129 18.34 108.129 20.8C108.129 23.2467 107.666 25.0967 106.739 26.35C105.813 27.5967 104.556 28.22 102.969 28.22C101.389 28.22 100.136 27.6 99.2094 26.36C98.2827 25.1133 97.8194 23.27 97.8194 20.83C97.8194 19.1833 98.0327 17.8033 98.4594 16.69C98.886 15.5767 99.486 14.74 100.259 14.18C101.033 13.62 101.943 13.34 102.989 13.34ZM102.989 26.62C104.023 26.62 104.803 26.1667 105.329 25.26C105.863 24.3467 106.129 22.8633 106.129 20.81C106.129 18.7167 105.859 17.21 105.319 16.29C104.786 15.3633 104.006 14.9 102.979 14.9C101.959 14.9 101.173 15.3667 100.619 16.3C100.073 17.2267 99.7994 18.73 99.7994 20.81C99.7994 22.8567 100.073 24.3367 100.619 25.25C101.166 26.1633 101.956 26.62 102.989 26.62ZM115.245 28V17.66H117.005V19.65C117.178 19.1567 117.422 18.75 117.735 18.43C118.048 18.1033 118.405 17.86 118.805 17.7C119.212 17.54 119.632 17.46 120.065 17.46C120.218 17.46 120.368 17.47 120.515 17.49C120.662 17.51 120.775 17.5433 120.855 17.59V19.38C120.755 19.3333 120.625 19.3033 120.465 19.29C120.312 19.27 120.182 19.26 120.075 19.26C119.662 19.2333 119.275 19.26 118.915 19.34C118.555 19.4133 118.238 19.5433 117.965 19.73C117.692 19.9167 117.475 20.1633 117.315 20.47C117.162 20.77 117.085 21.1367 117.085 21.57V28H115.245ZM125.605 28.2C124.938 28.2 124.348 28.0833 123.835 27.85C123.322 27.61 122.918 27.2667 122.625 26.82C122.338 26.3733 122.195 25.8333 122.195 25.2C122.195 24.0533 122.595 23.2 123.395 22.64C124.195 22.08 125.478 21.78 127.245 21.74L129.095 21.69V20.88C129.095 20.2467 128.905 19.7467 128.525 19.38C128.145 19.0067 127.555 18.82 126.755 18.82C126.162 18.8267 125.638 18.9667 125.185 19.24C124.738 19.5133 124.448 19.96 124.315 20.58H122.685C122.725 19.9067 122.915 19.34 123.255 18.88C123.595 18.4133 124.068 18.06 124.675 17.82C125.288 17.58 126.012 17.46 126.845 17.46C127.745 17.46 128.492 17.5867 129.085 17.84C129.685 18.0933 130.132 18.4667 130.425 18.96C130.725 19.4533 130.875 20.06 130.875 20.78V28H129.295L129.165 26.06C128.765 26.8667 128.255 27.4267 127.635 27.74C127.022 28.0467 126.345 28.2 125.605 28.2ZM126.165 26.87C126.512 26.87 126.855 26.8067 127.195 26.68C127.542 26.5533 127.858 26.3833 128.145 26.17C128.432 25.95 128.658 25.7067 128.825 25.44C128.998 25.1667 129.088 24.8867 129.095 24.6V22.83L127.555 22.86C126.768 22.8733 126.108 22.9533 125.575 23.1C125.048 23.2467 124.652 23.4767 124.385 23.79C124.125 24.1033 123.995 24.5133 123.995 25.02C123.995 25.6 124.195 26.0533 124.595 26.38C125.002 26.7067 125.525 26.87 126.165 26.87ZM134.034 28V17.66H135.824V19.16C135.991 18.8733 136.221 18.6033 136.514 18.35C136.814 18.0967 137.174 17.8933 137.594 17.74C138.021 17.5867 138.511 17.51 139.064 17.51C139.717 17.51 140.317 17.64 140.864 17.9C141.417 18.16 141.857 18.5667 142.184 19.12C142.517 19.6667 142.684 20.3733 142.684 21.24V28H140.834V21.42C140.834 20.6133 140.621 20.0167 140.194 19.63C139.774 19.2367 139.227 19.04 138.554 19.04C138.087 19.04 137.651 19.1167 137.244 19.27C136.837 19.4167 136.507 19.6433 136.254 19.95C136.001 20.25 135.874 20.63 135.874 21.09V28H134.034ZM154.657 28H152.697L149.457 22.81L147.417 24.92V28H145.577V13.14H147.417V22.83L152.277 17.66H154.397L150.667 21.6L154.657 28ZM158.866 17.66V28H157.076V17.66H158.866ZM158.906 13.55V15.47H157.016V13.55H158.906ZM162.237 28V17.66H164.027V19.16C164.194 18.8733 164.424 18.6033 164.717 18.35C165.017 18.0967 165.377 17.8933 165.797 17.74C166.224 17.5867 166.714 17.51 167.267 17.51C167.92 17.51 168.52 17.64 169.067 17.9C169.62 18.16 170.06 18.5667 170.387 19.12C170.72 19.6667 170.887 20.3733 170.887 21.24V28H169.037V21.42C169.037 20.6133 168.824 20.0167 168.397 19.63C167.977 19.2367 167.43 19.04 166.757 19.04C166.29 19.04 165.854 19.1167 165.447 19.27C165.04 19.4167 164.71 19.6433 164.457 19.95C164.204 20.25 164.077 20.63 164.077 21.09V28H162.237ZM178.14 31.42C176.513 31.42 175.247 31.1833 174.34 30.71C173.44 30.2433 172.99 29.5733 172.99 28.7C172.99 28.3267 173.077 28.01 173.25 27.75C173.423 27.4833 173.63 27.2633 173.87 27.09C174.11 26.9167 174.333 26.78 174.54 26.68C174.747 26.5733 174.88 26.4967 174.94 26.45C174.827 26.3833 174.683 26.3 174.51 26.2C174.343 26.1 174.197 25.9667 174.07 25.8C173.943 25.6333 173.88 25.4167 173.88 25.15C173.88 24.8233 174.033 24.5233 174.34 24.25C174.647 23.9767 175.1 23.7733 175.7 23.64C175.093 23.3333 174.62 22.9267 174.28 22.42C173.94 21.9133 173.77 21.3633 173.77 20.77C173.77 20.1033 173.95 19.5233 174.31 19.03C174.677 18.5367 175.197 18.16 175.87 17.9C176.543 17.6333 177.343 17.5 178.27 17.5C178.943 17.5 179.51 17.58 179.97 17.74C180.43 17.8933 180.857 18.1133 181.25 18.4C181.357 18.3533 181.523 18.2833 181.75 18.19C181.983 18.09 182.24 17.9833 182.52 17.87C182.8 17.7567 183.06 17.65 183.3 17.55C183.547 17.4433 183.743 17.3633 183.89 17.31L183.88 19.02L182.07 19.36C182.17 19.5733 182.25 19.8067 182.31 20.06C182.377 20.3133 182.41 20.55 182.41 20.77C182.41 21.3767 182.25 21.9267 181.93 22.42C181.617 22.9133 181.14 23.3067 180.5 23.6C179.86 23.8933 179.06 24.04 178.1 24.04C178.02 24.04 177.917 24.04 177.79 24.04C177.67 24.0333 177.567 24.0267 177.48 24.02C176.773 24.04 176.287 24.12 176.02 24.26C175.753 24.3933 175.62 24.5433 175.62 24.71C175.62 24.9033 175.77 25.0367 176.07 25.11C176.37 25.1833 176.88 25.2467 177.6 25.3C177.86 25.3133 178.18 25.33 178.56 25.35C178.947 25.37 179.373 25.3967 179.84 25.43C180.927 25.4967 181.763 25.7733 182.35 26.26C182.937 26.7467 183.23 27.4033 183.23 28.23C183.23 29.17 182.81 29.9367 181.97 30.53C181.13 31.1233 179.853 31.42 178.14 31.42ZM178.47 30.23C179.423 30.23 180.153 30.0867 180.66 29.8C181.167 29.5133 181.42 29.08 181.42 28.5C181.42 28.0867 181.263 27.75 180.95 27.49C180.643 27.2233 180.173 27.07 179.54 27.03L176.64 26.84C176.38 26.8267 176.11 26.8933 175.83 27.04C175.55 27.18 175.31 27.3767 175.11 27.63C174.917 27.8833 174.82 28.17 174.82 28.49C174.82 29.0367 175.117 29.4633 175.71 29.77C176.31 30.0767 177.23 30.23 178.47 30.23ZM178.15 22.85C178.897 22.85 179.497 22.6767 179.95 22.33C180.41 21.9833 180.64 21.47 180.64 20.79C180.64 20.09 180.41 19.5567 179.95 19.19C179.497 18.8233 178.897 18.64 178.15 18.64C177.397 18.64 176.787 18.8267 176.32 19.2C175.86 19.5667 175.63 20.0967 175.63 20.79C175.63 21.4433 175.85 21.95 176.29 22.31C176.73 22.67 177.35 22.85 178.15 22.85Z" fill="#212B36"/>
<path d="M170 41H20C16 41 1 35 1 20.5C1 4.5 17.5 1 20 1H46" stroke="#212B36" stroke-width="2"/>
<path d="M55 1H203C211.5 1 223.5 7.3 223.5 20.5C223.5 33.7 212 41 203 41H179.5L168 60.5" stroke="#212B36" stroke-width="2"/>
</svg>
