<svg width="21" height="22" viewBox="0 0 21 22" fill="none" xmlns="http://www.w3.org/2000/svg">
<path d="M10.5 0.640625C8.45111 0.640625 6.44823 1.24819 4.74464 2.38649C3.04105 3.5248 1.71327 5.14271 0.92919 7.03564C0.145113 8.92857 -0.0600366 11.0115 0.339682 13.021C0.739401 15.0305 1.72604 16.8764 3.17482 18.3252C4.6236 19.774 6.46947 20.7606 8.47899 21.1603C10.4885 21.56 12.5714 21.3549 14.4644 20.5708C16.3573 19.7867 17.9752 18.459 19.1135 16.7554C20.2518 15.0518 20.8594 13.0489 20.8594 11C20.8562 8.25351 19.7637 5.62044 17.8216 3.67838C15.8796 1.73632 13.2465 0.64385 10.5 0.640625ZM4.75563 18.1094C5.35159 17.1184 6.19378 16.2984 7.20035 15.7292C8.20691 15.16 9.34363 14.8608 10.5 14.8608C11.6564 14.8608 12.7931 15.16 13.7997 15.7292C14.8062 16.2984 15.6484 17.1184 16.2444 18.1094C14.6197 19.4268 12.5917 20.1457 10.5 20.1457C8.40835 20.1457 6.38026 19.4268 4.75563 18.1094ZM7.04688 10.1875C7.04688 9.50454 7.2494 8.83691 7.62884 8.26905C8.00827 7.70118 8.54757 7.25859 9.17855 6.99723C9.80953 6.73587 10.5038 6.66749 11.1737 6.80073C11.8435 6.93397 12.4588 7.26284 12.9417 7.74577C13.4247 8.2287 13.7535 8.84399 13.8868 9.51383C14.02 10.1837 13.9516 10.878 13.6903 11.509C13.4289 12.1399 12.9863 12.6792 12.4185 13.0587C11.8506 13.4381 11.183 13.6406 10.5 13.6406C9.58418 13.6406 8.70586 13.2768 8.05828 12.6292C7.41069 11.9816 7.04688 11.1033 7.04688 10.1875ZM17.1534 17.2603C16.1959 15.7716 14.7648 14.6488 13.0909 14.0733C13.9255 13.5173 14.5592 12.7076 14.8981 11.7637C15.237 10.8198 15.2631 9.79196 14.9727 8.83206C14.6823 7.87216 14.0907 7.03119 13.2854 6.43349C12.4801 5.83578 11.5039 5.51307 10.501 5.51307C9.49815 5.51307 8.5219 5.83578 7.71661 6.43349C6.91132 7.03119 6.31973 7.87216 6.02932 8.83206C5.73891 9.79196 5.76508 10.8198 6.10398 11.7637C6.44288 12.7076 7.0765 13.5173 7.91118 14.0733C6.23729 14.6488 4.80614 15.7716 3.84868 17.2603C2.62467 15.9614 1.8077 14.3326 1.49856 12.5748C1.18942 10.8171 1.40163 9.00724 2.10902 7.36866C2.8164 5.73009 3.98801 4.33445 5.47929 3.35393C6.97057 2.37342 8.71627 1.85093 10.501 1.85093C12.2858 1.85093 14.0315 2.37342 15.5227 3.35393C17.014 4.33445 18.1856 5.73009 18.893 7.36866C19.6004 9.00724 19.8126 10.8171 19.5035 12.5748C19.1943 14.3326 18.3774 15.9614 17.1534 17.2603Z" fill="#212B36"/>
</svg>
