<svg width="32" height="26" viewBox="0 0 32 26" fill="none" xmlns="http://www.w3.org/2000/svg">
<path d="M30.6673 0.99998C29.3905 1.90062 27.9768 2.58946 26.4807 3.03998C25.6776 2.11666 24.6104 1.46224 23.4234 1.16521C22.2363 0.868194 20.9866 0.942907 19.8434 1.37925C18.7002 1.81559 17.7186 2.59252 17.0313 3.60494C16.344 4.61736 15.9842 5.81643 16.0007 7.03998V8.37331C13.6575 8.43407 11.3357 7.9144 9.242 6.86057C7.14831 5.80675 5.34774 4.25149 4.00065 2.33331C4.00065 2.33331 -1.33268 14.3333 10.6673 19.6666C7.92135 21.5306 4.65019 22.4652 1.33398 22.3333C13.334 29 28.0007 22.3333 28.0007 6.99998C27.9994 6.62858 27.9637 6.25811 27.894 5.89331C29.2548 4.5513 30.2151 2.85693 30.6673 0.99998Z" stroke="#212B36" stroke-width="1.33333" stroke-linecap="round" stroke-linejoin="round"/>
</svg>
