<svg width="33" height="32" viewBox="0 0 33 32" fill="none" xmlns="http://www.w3.org/2000/svg">
<path d="M22.084 10.667C24.2057 10.667 26.2405 11.5098 27.7408 13.0101C29.2411 14.5104 30.084 16.5453 30.084 18.667V28.0003H24.7507V18.667C24.7507 17.9597 24.4697 17.2815 23.9696 16.7814C23.4695 16.2813 22.7912 16.0003 22.084 16.0003C21.3767 16.0003 20.6985 16.2813 20.1984 16.7814C19.6983 17.2815 19.4173 17.9597 19.4173 18.667V28.0003H14.084V18.667C14.084 16.5453 14.9268 14.5104 16.4271 13.0101C17.9274 11.5098 19.9623 10.667 22.084 10.667Z" stroke="white" stroke-width="1.33333" stroke-linecap="round" stroke-linejoin="round"/>
<path d="M8.74935 12H3.41602V28H8.74935V12Z" stroke="white" stroke-width="1.33333" stroke-linecap="round" stroke-linejoin="round"/>
<path d="M6.08268 8.00033C7.55544 8.00033 8.74935 6.80642 8.74935 5.33366C8.74935 3.8609 7.55544 2.66699 6.08268 2.66699C4.60992 2.66699 3.41602 3.8609 3.41602 5.33366C3.41602 6.80642 4.60992 8.00033 6.08268 8.00033Z" stroke="white" stroke-width="1.33333" stroke-linecap="round" stroke-linejoin="round"/>
</svg>
