<svg width="20" height="20" viewBox="0 0 20 20" fill="none" xmlns="http://www.w3.org/2000/svg">
<g clip-path="url(#clip0_505_888)">
<path d="M10 11.6665C11.3807 11.6665 12.5 10.5472 12.5 9.1665C12.5 7.78579 11.3807 6.6665 10 6.6665C8.61929 6.6665 7.5 7.78579 7.5 9.1665C7.5 10.5472 8.61929 11.6665 10 11.6665Z" stroke="#212B36" stroke-width="1.41667" stroke-linecap="round" stroke-linejoin="round"/>
<path d="M14.7148 13.8806L11.179 17.4164C10.8665 17.7286 10.4428 17.904 10.0011 17.904C9.55933 17.904 9.13567 17.7286 8.82315 17.4164L5.28649 13.8806C4.35417 12.9482 3.71927 11.7603 3.46206 10.4671C3.20485 9.17395 3.3369 7.83352 3.84149 6.61536C4.34608 5.39721 5.20057 4.35604 6.29689 3.62351C7.39321 2.89098 8.68213 2.5 10.0007 2.5C11.3192 2.5 12.6081 2.89098 13.7044 3.62351C14.8007 4.35604 15.6552 5.39721 16.1598 6.61536C16.6644 7.83352 16.7965 9.17395 16.5392 10.4671C16.282 11.7603 15.6471 12.9482 14.7148 13.8806Z" stroke="#212B36" stroke-width="1.41667" stroke-linecap="round" stroke-linejoin="round"/>
</g>
<defs>
<clipPath id="clip0_505_888">
<rect width="20" height="20" fill="white"/>
</clipPath>
</defs>
</svg>
