<svg width="32" height="26" viewBox="0 0 32 26" fill="none" xmlns="http://www.w3.org/2000/svg">
<path d="M30.4173 0.999736C29.1405 1.90037 27.7268 2.58922 26.2307 3.03974C25.4276 2.11642 24.3604 1.46199 23.1734 1.16497C21.9863 0.86795 20.7366 0.942663 19.5934 1.37901C18.4502 1.81535 17.4686 2.59227 16.7813 3.60469C16.094 4.61711 15.7342 5.81618 15.7507 7.03974V8.37307C13.4075 8.43383 11.0857 7.91415 8.992 6.86033C6.89831 5.80651 5.09774 4.25125 3.75065 2.33307C3.75065 2.33307 -1.58268 14.3331 10.4173 19.6664C7.67135 21.5304 4.40019 22.465 1.08398 22.3331C13.084 28.9997 27.7507 22.3331 27.7507 6.99974C27.7494 6.62834 27.7137 6.25786 27.644 5.89307C29.0048 4.55106 29.9651 2.85669 30.4173 0.999736Z" stroke="white" stroke-width="1.33333" stroke-linecap="round" stroke-linejoin="round"/>
</svg>
