<svg width="61" height="61" viewBox="0 0 61 61" fill="none" xmlns="http://www.w3.org/2000/svg">
<path d="M28.4738 3.65714C29.4717 2.27634 31.5283 2.27634 32.5262 3.65714L33.5142 5.0241C34.5674 6.48139 36.5535 6.90356 38.1084 6.00064L39.5669 5.15369C41.0402 4.29817 42.919 5.13464 43.269 6.80196L43.6156 8.45257C43.985 10.2123 45.6277 11.4058 47.4154 11.2133L49.0923 11.0329C50.7862 10.8505 52.1623 12.3788 51.8039 14.0444L51.4492 15.6932C51.0709 17.4511 52.0862 19.2095 53.7976 19.7609L55.4029 20.2781C57.0245 20.8005 57.66 22.7563 56.6552 24.1321L55.6604 25.4941C54.5999 26.9462 54.8122 28.9655 56.1514 30.1653L57.4076 31.2907C58.6765 32.4275 58.4616 34.4728 56.984 35.321L55.5213 36.1606C53.9619 37.0557 53.3344 38.9868 54.0699 40.6276L54.7597 42.1667C55.4565 43.7213 54.4283 45.5023 52.7335 45.6762L51.0557 45.8483C49.267 46.0318 47.9084 47.5407 47.9129 49.3388L47.9171 51.0254C47.9213 52.729 46.2576 53.9378 44.6386 53.4073L43.0359 52.8821C41.3272 52.3222 39.4723 53.1481 38.745 54.7925L38.0629 56.335C37.3738 57.8931 35.3622 58.3207 34.099 57.1776L32.8485 56.0459C31.5152 54.8394 29.4848 54.8394 28.1516 56.0459L26.901 57.1776C25.6378 58.3207 23.6262 57.8931 22.9371 56.335L22.255 54.7925C21.5277 53.1481 19.6728 52.3222 17.9641 52.8821L16.3614 53.4073C14.7424 53.9378 13.0787 52.729 13.0829 51.0254L13.0871 49.3388C13.0916 47.5407 11.733 46.0318 9.9443 45.8483L8.2665 45.6762C6.57173 45.5023 5.54346 43.7213 6.24029 42.1667L6.93015 40.6276C7.66559 38.9868 7.03813 37.0557 5.47872 36.1606L4.01599 35.321C2.53844 34.4728 2.32347 32.4275 3.59239 31.2907L4.84859 30.1653C6.18781 28.9655 6.40006 26.9462 5.33955 25.4941L4.34479 24.1321C3.33996 22.7563 3.97546 20.8005 5.59705 20.2781L7.2024 19.7609C8.91384 19.2095 9.92909 17.4511 9.55085 15.6932L9.19607 14.0444C8.83769 12.3788 10.2138 10.8505 11.9077 11.0329L13.5846 11.2133C15.3723 11.4058 17.015 10.2123 17.3845 8.45257L17.731 6.80196C18.081 5.13464 19.9598 4.29817 21.4331 5.15369L22.8916 6.00064C24.4465 6.90356 26.4326 6.4814 27.4858 5.0241L28.4738 3.65714Z" fill="#BFE1D0" stroke="#00AB55"/>
<path d="M25.8327 34.3333L38.1243 22.0417C38.5063 21.6597 38.9924 21.4688 39.5827 21.4688C40.173 21.4688 40.6591 21.6597 41.041 22.0417C41.423 22.4236 41.6139 22.9097 41.6139 23.5C41.6139 24.0903 41.423 24.5764 41.041 24.9583L27.291 38.7083C26.8743 39.125 26.3882 39.3333 25.8327 39.3333C25.2771 39.3333 24.791 39.125 24.3743 38.7083L18.9577 33.2917C18.5757 32.9097 18.3848 32.4236 18.3848 31.8333C18.3848 31.2431 18.5757 30.7569 18.9577 30.375C19.3396 29.9931 19.8257 29.8021 20.416 29.8021C21.0063 29.8021 21.4924 29.9931 21.8743 30.375L25.8327 34.3333Z" fill="black"/>
</svg>
